<svg width="20" height="20" viewBox="0 0 20 20" fill="none" xmlns="http://www.w3.org/2000/svg">
<g id="apps 1" clip-path="url(#clip0_1504_816)">
<path id="Vector" d="M5.83333 0H3.33333C2.44928 0 1.60143 0.35119 0.976311 0.976311C0.35119 1.60143 0 2.44928 0 3.33333L0 5.83333C0 6.71739 0.35119 7.56524 0.976311 8.19036C1.60143 8.81548 2.44928 9.16667 3.33333 9.16667H5.83333C6.71739 9.16667 7.56524 8.81548 8.19036 8.19036C8.81548 7.56524 9.16667 6.71739 9.16667 5.83333V3.33333C9.16667 2.44928 8.81548 1.60143 8.19036 0.976311C7.56524 0.35119 6.71739 0 5.83333 0ZM7.5 5.83333C7.5 6.27536 7.32441 6.69928 7.01184 7.01184C6.69928 7.32441 6.27536 7.5 5.83333 7.5H3.33333C2.89131 7.5 2.46738 7.32441 2.15482 7.01184C1.84226 6.69928 1.66667 6.27536 1.66667 5.83333V3.33333C1.66667 2.89131 1.84226 2.46738 2.15482 2.15482C2.46738 1.84226 2.89131 1.66667 3.33333 1.66667H5.83333C6.27536 1.66667 6.69928 1.84226 7.01184 2.15482C7.32441 2.46738 7.5 2.89131 7.5 3.33333V5.83333Z" fill="#BC6C25"/>
<path id="Vector_2" d="M16.6654 0H14.1654C13.2813 0 12.4335 0.35119 11.8083 0.976311C11.1832 1.60143 10.832 2.44928 10.832 3.33333V5.83333C10.832 6.71739 11.1832 7.56524 11.8083 8.19036C12.4335 8.81548 13.2813 9.16667 14.1654 9.16667H16.6654C17.5494 9.16667 18.3973 8.81548 19.0224 8.19036C19.6475 7.56524 19.9987 6.71739 19.9987 5.83333V3.33333C19.9987 2.44928 19.6475 1.60143 19.0224 0.976311C18.3973 0.35119 17.5494 0 16.6654 0ZM18.332 5.83333C18.332 6.27536 18.1564 6.69928 17.8439 7.01184C17.5313 7.32441 17.1074 7.5 16.6654 7.5H14.1654C13.7233 7.5 13.2994 7.32441 12.9869 7.01184C12.6743 6.69928 12.4987 6.27536 12.4987 5.83333V3.33333C12.4987 2.89131 12.6743 2.46738 12.9869 2.15482C13.2994 1.84226 13.7233 1.66667 14.1654 1.66667H16.6654C17.1074 1.66667 17.5313 1.84226 17.8439 2.15482C18.1564 2.46738 18.332 2.89131 18.332 3.33333V5.83333Z" fill="#BC6C25"/>
<path id="Vector_3" d="M5.83333 10.8335H3.33333C2.44928 10.8335 1.60143 11.1847 0.976311 11.8098C0.35119 12.4349 0 13.2828 0 14.1668L0 16.6668C0 17.5509 0.35119 18.3987 0.976311 19.0239C1.60143 19.649 2.44928 20.0002 3.33333 20.0002H5.83333C6.71739 20.0002 7.56524 19.649 8.19036 19.0239C8.81548 18.3987 9.16667 17.5509 9.16667 16.6668V14.1668C9.16667 13.2828 8.81548 12.4349 8.19036 11.8098C7.56524 11.1847 6.71739 10.8335 5.83333 10.8335ZM7.5 16.6668C7.5 17.1089 7.32441 17.5328 7.01184 17.8453C6.69928 18.1579 6.27536 18.3335 5.83333 18.3335H3.33333C2.89131 18.3335 2.46738 18.1579 2.15482 17.8453C1.84226 17.5328 1.66667 17.1089 1.66667 16.6668V14.1668C1.66667 13.7248 1.84226 13.3009 2.15482 12.9883C2.46738 12.6758 2.89131 12.5002 3.33333 12.5002H5.83333C6.27536 12.5002 6.69928 12.6758 7.01184 12.9883C7.32441 13.3009 7.5 13.7248 7.5 14.1668V16.6668Z" fill="#BC6C25"/>
<path id="Vector_4" d="M16.6654 10.8335H14.1654C13.2813 10.8335 12.4335 11.1847 11.8083 11.8098C11.1832 12.4349 10.832 13.2828 10.832 14.1668V16.6668C10.832 17.5509 11.1832 18.3987 11.8083 19.0239C12.4335 19.649 13.2813 20.0002 14.1654 20.0002H16.6654C17.5494 20.0002 18.3973 19.649 19.0224 19.0239C19.6475 18.3987 19.9987 17.5509 19.9987 16.6668V14.1668C19.9987 13.2828 19.6475 12.4349 19.0224 11.8098C18.3973 11.1847 17.5494 10.8335 16.6654 10.8335ZM18.332 16.6668C18.332 17.1089 18.1564 17.5328 17.8439 17.8453C17.5313 18.1579 17.1074 18.3335 16.6654 18.3335H14.1654C13.7233 18.3335 13.2994 18.1579 12.9869 17.8453C12.6743 17.5328 12.4987 17.1089 12.4987 16.6668V14.1668C12.4987 13.7248 12.6743 13.3009 12.9869 12.9883C13.2994 12.6758 13.7233 12.5002 14.1654 12.5002H16.6654C17.1074 12.5002 17.5313 12.6758 17.8439 12.9883C18.1564 13.3009 18.332 13.7248 18.332 14.1668V16.6668Z" fill="#BC6C25"/>
</g>
<defs>
<clipPath id="clip0_1504_816">
<rect width="20" height="20" fill="white"/>
</clipPath>
</defs>
</svg>
