<svg width="20" height="20" viewBox="0 0 20 20" fill="none" xmlns="http://www.w3.org/2000/svg">
<g id="child-head 1" clip-path="url(#clip0_1504_888)">
<path id="Vector" d="M20.0009 9.58323C20.0005 9.00854 19.8303 8.44679 19.5117 7.96851C19.1931 7.49022 18.7402 7.11672 18.2101 6.89489C17.8718 4.96353 16.8632 3.21332 15.3619 1.95212C13.8605 0.690918 11.9625 -0.000488281 10.0018 -0.000488281C8.04099 -0.000488281 6.143 0.690918 4.64166 1.95212C3.14032 3.21332 2.13177 4.96353 1.79343 6.89489C1.18844 7.14942 0.686975 7.60057 0.370139 8.1754C0.0533021 8.75022 -0.060387 9.41511 0.0474551 10.0625C0.155297 10.71 0.478366 11.3021 0.96442 11.7432C1.45047 12.1843 2.0711 12.4485 2.72593 12.4932C3.15634 13.4066 3.74006 14.2395 4.45177 14.9557C3.40892 16.0944 2.74709 17.5299 2.55843 19.0624C2.54478 19.171 2.55266 19.2813 2.58162 19.3868C2.61059 19.4924 2.66007 19.5912 2.72724 19.6777C2.79442 19.7641 2.87796 19.8365 2.97311 19.8906C3.06826 19.9448 3.17314 19.9796 3.28177 19.9932C3.31606 19.9974 3.35056 19.9996 3.3851 19.9999C3.58791 19.9997 3.78367 19.9255 3.9357 19.7912C4.08772 19.657 4.18558 19.4719 4.21093 19.2707C4.36202 18.0625 4.89144 16.9331 5.72343 16.0441C6.96438 16.9601 8.45885 17.4687 10.0009 17.4999C11.5385 17.4684 13.0286 16.9619 14.2668 16.0499C15.0951 16.9374 15.6224 18.0636 15.7734 19.2682C15.7986 19.4696 15.8964 19.6549 16.0484 19.7893C16.2005 19.9237 16.3963 19.998 16.5993 19.9982C16.6341 19.9981 16.6689 19.9958 16.7034 19.9916C16.9227 19.9641 17.122 19.8507 17.2576 19.6763C17.3933 19.5019 17.4541 19.2808 17.4268 19.0616C17.2394 17.533 16.5809 16.1006 15.5426 14.9632C16.2582 14.2448 16.8451 13.4087 17.2776 12.4916C18.0157 12.4425 18.7076 12.1149 19.2133 11.5749C19.7189 11.0349 20.0004 10.323 20.0009 9.58323ZM16.8743 10.8107C16.6799 10.7751 16.4792 10.8102 16.3085 10.9097C16.1377 11.0092 16.0083 11.1666 15.9434 11.3532C15.1801 13.5182 12.6093 15.8332 10.0009 15.8332C7.3926 15.8332 4.82177 13.5166 4.05843 11.3516C3.99346 11.165 3.86395 11.0078 3.69327 10.9083C3.52258 10.8088 3.32196 10.7736 3.1276 10.8091C3.05835 10.8226 2.98813 10.8307 2.9176 10.8332C2.60826 10.8295 2.31127 10.7113 2.08409 10.5013C1.8569 10.2913 1.71565 10.0045 1.68766 9.69641C1.65967 9.38831 1.74693 9.08078 1.93256 8.83329C2.11818 8.5858 2.38899 8.41594 2.6926 8.35656C2.86978 8.32444 3.03179 8.2358 3.15437 8.1039C3.27696 7.972 3.35352 7.80395 3.3726 7.62489C3.4839 6.55932 3.85161 5.53655 4.44429 4.64404C5.03697 3.75154 5.83699 3.01585 6.77593 2.49989C6.63948 3.02998 6.63319 3.58519 6.7576 4.11823C6.92702 4.82314 7.32165 5.4536 7.88165 5.91403C8.44166 6.37447 9.13651 6.63977 9.86088 6.66973C10.5852 6.6997 11.2996 6.49268 11.8957 6.08007C12.4919 5.66745 12.9372 5.07174 13.1643 4.38323C13.2013 4.26092 13.209 4.13161 13.1868 4.00577C13.1646 3.87993 13.113 3.76108 13.0364 3.65885C12.9597 3.55662 12.86 3.47387 12.7454 3.4173C12.6308 3.36073 12.5045 3.33193 12.3768 3.33323H12.2509C12.0977 3.33825 11.95 3.39191 11.8292 3.48644C11.7085 3.58097 11.6209 3.71147 11.5793 3.85906C11.4824 4.1504 11.3069 4.40933 11.0722 4.60727C10.8375 4.80521 10.5527 4.93447 10.2492 4.9808C9.94572 5.02713 9.63531 4.98873 9.35225 4.86982C9.06918 4.75092 8.82447 4.55613 8.64509 4.30696C8.46571 4.05778 8.35865 3.7639 8.33572 3.45773C8.31278 3.15157 8.37486 2.84502 8.51511 2.5719C8.65535 2.29878 8.86832 2.06971 9.1305 1.90995C9.39269 1.7502 9.69391 1.66597 10.0009 1.66656C11.6475 1.66262 13.2369 2.26981 14.4614 3.37055C15.6859 4.47129 16.4584 5.98726 16.6293 7.62489C16.6483 7.80395 16.7249 7.972 16.8475 8.1039C16.9701 8.2358 17.1321 8.32444 17.3093 8.35656C17.6129 8.41594 17.8837 8.5858 18.0693 8.83329C18.2549 9.08078 18.3422 9.38831 18.3142 9.69641C18.2862 10.0045 18.145 10.2913 17.9178 10.5013C17.6906 10.7113 17.3936 10.8295 17.0843 10.8332C17.0138 10.8313 16.9436 10.8237 16.8743 10.8107Z" fill="#BC6C25"/>
<path id="Vector_2" d="M7.91797 10.8335C8.60832 10.8335 9.16797 10.2739 9.16797 9.5835C9.16797 8.89314 8.60832 8.3335 7.91797 8.3335C7.22761 8.3335 6.66797 8.89314 6.66797 9.5835C6.66797 10.2739 7.22761 10.8335 7.91797 10.8335Z" fill="#BC6C25"/>
<path id="Vector_3" d="M12.082 10.8335C12.7724 10.8335 13.332 10.2739 13.332 9.5835C13.332 8.89314 12.7724 8.3335 12.082 8.3335C11.3917 8.3335 10.832 8.89314 10.832 9.5835C10.832 10.2739 11.3917 10.8335 12.082 10.8335Z" fill="#BC6C25"/>
</g>
<defs>
<clipPath id="clip0_1504_888">
<rect width="20" height="20" fill="white"/>
</clipPath>
</defs>
</svg>
