<svg width="20" height="20" viewBox="0 0 20 20" fill="none" xmlns="http://www.w3.org/2000/svg">
<g id="cross 1" clip-path="url(#clip0_1504_1492)">
<g id="Group">
<path id="Vector" d="M11.7674 10.0005L19.6338 2.13496C20.1221 1.64666 20.1221 0.854975 19.6338 0.366714C19.1455 -0.121587 18.3538 -0.121587 17.8655 0.366714L9.99997 8.23303L2.13447 0.366714C1.64617 -0.121587 0.854486 -0.121587 0.366225 0.366714C-0.122036 0.855014 -0.122075 1.6467 0.366225 2.13496L8.23254 10.0005L0.366225 17.866C-0.122075 18.3543 -0.122075 19.146 0.366225 19.6342C0.854526 20.1225 1.64621 20.1225 2.13447 19.6342L9.99997 11.7679L17.8655 19.6342C18.3538 20.1225 19.1455 20.1225 19.6337 19.6342C20.122 19.1459 20.122 18.3543 19.6337 17.866L11.7674 10.0005Z" fill="#023047"/>
</g>
</g>
<defs>
<clipPath id="clip0_1504_1492">
<rect width="20" height="20" fill="white"/>
</clipPath>
</defs>
</svg>
