<svg width="40" height="40" viewBox="0 0 40 40" fill="none" xmlns="http://www.w3.org/2000/svg">
<g id="circle-dashed 1" clip-path="url(#clip0_2587_340)">
<path id="Vector" d="M1.93438 16.8167C1.75104 17.85 1.66771 18.9167 1.66771 20C1.66771 21.0833 1.76771 22.1333 1.93438 23.1833C2.01771 23.6333 1.71771 24.0667 1.25104 24.15C1.20104 24.15 1.15104 24.15 1.10104 24.15C0.701042 24.15 0.351042 23.8667 0.284375 23.4667C0.084375 22.3333 -0.015625 21.1667 -0.015625 20C-0.015625 18.8333 0.084375 17.6667 0.284375 16.5333C0.367708 16.0833 0.801042 15.7667 1.25104 15.85C1.70104 15.9333 2.00104 16.3667 1.93438 16.8167ZM3.81771 9.68333C3.96771 9.78333 4.13438 9.83333 4.30104 9.83333C4.56771 9.83333 4.81771 9.71667 4.98438 9.48333C6.21771 7.71667 7.73438 6.2 9.48438 4.96667C9.86771 4.7 9.95104 4.18333 9.68438 3.8C9.41771 3.41667 8.90104 3.33333 8.51771 3.6C6.60104 4.95 4.95104 6.6 3.60104 8.51667C3.33438 8.9 3.43438 9.41667 3.80104 9.68333H3.81771ZM9.48438 35.0167C7.71771 33.7833 6.20104 32.2667 4.96771 30.5167C4.70104 30.1333 4.18438 30.05 3.80104 30.3167C3.41771 30.5833 3.33438 31.1 3.60104 31.4833C4.95104 33.4 6.60104 35.05 8.51771 36.4C8.66771 36.5 8.83438 36.55 9.00104 36.55C9.26771 36.55 9.51771 36.4333 9.68438 36.2C9.95104 35.8167 9.85104 35.3 9.48438 35.0333V35.0167ZM36.1844 30.3C35.8177 30.0333 35.2844 30.1333 35.0177 30.5C33.7844 32.2667 32.2677 33.7833 30.5177 35.0167C30.1344 35.2833 30.051 35.8 30.3177 36.1833C30.4844 36.4167 30.7344 36.5333 31.001 36.5333C31.1677 36.5333 31.3344 36.4833 31.4844 36.3833C33.401 35.0333 35.051 33.3833 36.4011 31.4667C36.6677 31.0833 36.5677 30.5667 36.201 30.3H36.1844ZM23.1844 38.05C22.151 38.2333 21.0844 38.3167 20.001 38.3167C18.9177 38.3167 17.8677 38.2167 16.8177 38.05C16.3677 37.95 15.9344 38.2667 15.851 38.7333C15.7677 39.1833 16.0677 39.6167 16.5344 39.7C17.6677 39.9 18.8344 40 20.001 40C21.1677 40 22.3344 39.9 23.4677 39.7C23.9177 39.6167 24.2177 39.1833 24.151 38.7333C24.0677 38.2833 23.6344 37.9667 23.1844 38.05ZM23.4677 0.3C22.3344 0.1 21.1677 0 20.001 0C18.8344 0 17.6677 0.1 16.5344 0.3C16.0844 0.383333 15.7844 0.816667 15.851 1.26667C15.9177 1.66667 16.2677 1.95 16.6677 1.95C16.7177 1.95 16.7677 1.95 16.8177 1.95C17.851 1.76667 18.9177 1.68333 20.001 1.68333C21.0844 1.68333 22.1344 1.78333 23.1844 1.95C23.2344 1.95 23.2844 1.95 23.3344 1.95C23.7344 1.95 24.0844 1.66667 24.151 1.26667C24.2344 0.816667 23.9344 0.383333 23.4677 0.3ZM30.5177 4.98333C32.2844 6.21667 33.801 7.73333 35.0344 9.48333C35.201 9.71667 35.451 9.83333 35.7177 9.83333C35.8844 9.83333 36.051 9.78333 36.201 9.68333C36.5844 9.41667 36.6677 8.9 36.4011 8.51667C35.051 6.6 33.401 4.95 31.4844 3.6C31.1177 3.33333 30.5844 3.43333 30.3177 3.8C30.051 4.18333 30.151 4.7 30.5177 4.96667V4.98333ZM39.701 16.55C39.6177 16.1 39.1844 15.7833 38.7344 15.8667C38.2844 15.95 37.9844 16.3833 38.051 16.8333C38.2344 17.8667 38.3177 18.9333 38.3177 20.0167C38.3177 21.1 38.2177 22.15 38.051 23.2C37.9677 23.65 38.2677 24.0833 38.7344 24.1667C38.7844 24.1667 38.8344 24.1667 38.8844 24.1667C39.2844 24.1667 39.6344 23.8833 39.701 23.4833C39.9011 22.35 40.001 21.1833 40.001 20.0167C40.001 18.85 39.9011 17.6833 39.701 16.55Z" fill="#C5C5C5"/>
</g>
<defs>
<clipPath id="clip0_2587_340">
<rect width="40" height="40" fill="white"/>
</clipPath>
</defs>
</svg>
