<svg width="129" height="129" viewBox="0 0 129 129" fill="none" xmlns="http://www.w3.org/2000/svg">
<g id="circle-dashed 1" clip-path="url(#clip0_1742_181)">
<path id="Vector" d="M6.23406 54.2337C5.64281 57.5662 5.37406 61.0062 5.37406 64.5C5.37406 67.9938 5.69656 71.38 6.23406 74.7663C6.50281 76.2175 5.53531 77.615 4.03031 77.8838C3.86906 77.8838 3.70781 77.8838 3.54656 77.8838C2.25656 77.8838 1.12781 76.97 0.912813 75.68C0.267813 72.025 -0.0546875 68.2625 -0.0546875 64.5C-0.0546875 60.7375 0.267813 56.975 0.912813 53.32C1.18156 51.8688 2.57906 50.8475 4.03031 51.1163C5.48156 51.385 6.44906 52.7825 6.23406 54.2337ZM12.3078 31.2288C12.7916 31.5513 13.3291 31.7125 13.8666 31.7125C14.7266 31.7125 15.5328 31.3363 16.0703 30.5837C20.0478 24.8863 24.9391 19.995 30.5828 16.0175C31.8191 15.1575 32.0878 13.4913 31.2278 12.255C30.3678 11.0188 28.7016 10.75 27.4653 11.61C21.2841 15.9638 15.9628 21.285 11.6091 27.4663C10.7491 28.7025 11.0716 30.3687 12.2541 31.2288H12.3078ZM30.5828 112.929C24.8853 108.951 19.9941 104.06 16.0166 98.4162C15.1566 97.18 13.4903 96.9113 12.2541 97.7713C11.0178 98.6313 10.7491 100.297 11.6091 101.534C15.9628 107.715 21.2841 113.036 27.4653 117.39C27.9491 117.713 28.4866 117.874 29.0241 117.874C29.8841 117.874 30.6903 117.497 31.2278 116.745C32.0878 115.509 31.7653 113.842 30.5828 112.983V112.929ZM116.69 97.7175C115.508 96.8575 113.788 97.18 112.928 98.3625C108.95 104.06 104.059 108.951 98.4153 112.929C97.1791 113.789 96.9103 115.455 97.7703 116.691C98.3078 117.444 99.1141 117.82 99.9741 117.82C100.512 117.82 101.049 117.659 101.533 117.336C107.714 112.982 113.035 107.661 117.389 101.48C118.249 100.244 117.927 98.5775 116.744 97.7175H116.69ZM74.7653 122.711C71.4328 123.302 67.9928 123.571 64.4991 123.571C61.0053 123.571 57.6191 123.249 54.2328 122.711C52.7816 122.389 51.3841 123.41 51.1153 124.915C50.8466 126.366 51.8141 127.764 53.3191 128.033C56.9741 128.678 60.7366 129 64.4991 129C68.2616 129 72.0241 128.678 75.6791 128.033C77.1303 127.764 78.0978 126.366 77.8828 124.915C77.6141 123.464 76.2166 122.442 74.7653 122.711ZM75.6791 0.9675C72.0241 0.3225 68.2616 0 64.4991 0C60.7366 0 56.9741 0.3225 53.3191 0.9675C51.8678 1.23625 50.9003 2.63375 51.1153 4.085C51.3303 5.375 52.4591 6.28875 53.7491 6.28875C53.9103 6.28875 54.0716 6.28875 54.2328 6.28875C57.5653 5.6975 61.0053 5.42875 64.4991 5.42875C67.9928 5.42875 71.3791 5.75125 74.7653 6.28875C74.9266 6.28875 75.0878 6.28875 75.2491 6.28875C76.5391 6.28875 77.6678 5.375 77.8828 4.085C78.1516 2.63375 77.1841 1.23625 75.6791 0.9675ZM98.4153 16.0713C104.113 20.0487 109.004 24.94 112.982 30.5837C113.519 31.3363 114.325 31.7125 115.185 31.7125C115.723 31.7125 116.26 31.5513 116.744 31.2288C117.98 30.3687 118.249 28.7025 117.389 27.4663C113.035 21.285 107.714 15.9638 101.533 11.61C100.35 10.75 98.6303 11.0725 97.7703 12.255C96.9103 13.4913 97.2328 15.1575 98.4153 16.0175V16.0713ZM128.032 53.3738C127.763 51.9225 126.365 50.9013 124.914 51.17C123.463 51.4388 122.495 52.8363 122.71 54.2875C123.302 57.62 123.57 61.06 123.57 64.5537C123.57 68.0475 123.248 71.4338 122.71 74.82C122.442 76.2712 123.409 77.6687 124.914 77.9375C125.075 77.9375 125.237 77.9375 125.398 77.9375C126.688 77.9375 127.817 77.0238 128.032 75.7337C128.677 72.0788 128.999 68.3163 128.999 64.5537C128.999 60.7913 128.677 57.0288 128.032 53.3738Z" fill="#C5C5C5"/>
</g>
<defs>
<clipPath id="clip0_1742_181">
<rect width="129" height="129" fill="white"/>
</clipPath>
</defs>
</svg>
