<svg width="20" height="20" viewBox="0 0 20 20" fill="none" xmlns="http://www.w3.org/2000/svg">
<g id="caret-down 1">
<path id="Vector" d="M5.49877 7.5H14.1685C14.3218 7.50069 14.4715 7.55024 14.5987 7.64237C14.7259 7.73451 14.8248 7.8651 14.8829 8.01762C14.941 8.17015 14.9557 8.33777 14.9251 8.49928C14.8946 8.66079 14.8202 8.80894 14.7113 8.925L10.3842 13.575C10.3121 13.6531 10.2263 13.7151 10.1318 13.7574C10.0373 13.7997 9.93598 13.8215 9.83361 13.8215C9.73124 13.8215 9.62989 13.7997 9.53539 13.7574C9.44089 13.7151 9.35512 13.6531 9.28303 13.575L4.95595 8.925C4.84706 8.80894 4.77264 8.66079 4.74209 8.49928C4.71155 8.33777 4.72626 8.17015 4.78437 8.01762C4.84247 7.8651 4.94135 7.73451 5.06851 7.64237C5.19568 7.55024 5.34541 7.50069 5.49877 7.5Z" fill="white"/>
</g>
</svg>
