<?xml version="1.0" encoding="utf-8"?>
<svg version="1.1" id="Layer_1" x="0px" y="0px" style="enable-background:new 0 0 1200.55 554.55;" xmlns="http://www.w3.org/2000/svg">
  <style type="text/css">
	.st0{fill:#D4D6D6;}
</style>
  <path class="st0" d="M 710.485 59.564 L 690.421 59.564 L 672.903 59.564 L 598.801 59.564 C 606.438 60.987 597.342 51.942 590.149 71.018 C 577.493 104.582 553.045 114.225 538.713 114.225 C 524.381 114.225 492.748 109.05 485.864 73.846 C 482.073 54.46 467.224 59.564 473.676 59.564 L 402.387 59.564 L 384.87 59.564 L 364.806 59.564 C 356.71 59.564 350.147 77.576 350.147 99.79 L 350.147 154.851 L 350.147 424.277 L 350.147 479.337 C 350.147 501.553 356.71 519.564 364.806 519.564 L 384.87 519.564 L 402.387 519.564 L 672.906 519.564 L 690.424 519.564 L 710.488 519.564 C 718.584 519.564 725.147 501.553 725.147 479.337 L 725.147 424.277 L 725.147 154.851 L 725.147 99.799 C 725.144 77.576 718.581 59.564 710.485 59.564 Z" style=""/>
</svg>