<svg width="18" height="18" viewBox="0 0 18 18" fill="none" xmlns="http://www.w3.org/2000/svg">
<g id="heart-3 2" clip-path="url(#clip0_1742_478)">
<path id="Vector" d="M13.1247 1.43799C12.2802 1.45112 11.4541 1.68688 10.7298 2.12144C10.0055 2.55601 9.40874 3.17399 8.99973 3.91299C8.5907 3.17399 7.99393 2.55601 7.26965 2.12144C6.54538 1.68688 5.71926 1.45112 4.87473 1.43799C3.52843 1.49648 2.26 2.08543 1.34656 3.07616C0.433119 4.0669 -0.0510883 5.37888 -0.000275422 6.72549C-0.000275422 10.1357 3.58922 13.8602 6.59973 16.3855C7.27189 16.9503 8.12174 17.26 8.99973 17.26C9.87771 17.26 10.7276 16.9503 11.3997 16.3855C14.4102 13.8602 17.9997 10.1357 17.9997 6.72549C18.0505 5.37888 17.5663 4.0669 16.6529 3.07616C15.7394 2.08543 14.471 1.49648 13.1247 1.43799Z" fill="#EA6666"/>
</g>
<defs>
<clipPath id="clip0_1742_478">
<rect width="18" height="18" fill="white"/>
</clipPath>
</defs>
</svg>
