<svg width="20" height="21" viewBox="0 0 20 21" fill="none" xmlns="http://www.w3.org/2000/svg">
<g id="heart 1" clip-path="url(#clip0_246_2472)">
<path id="Vector" d="M14.5835 2.09766C13.6451 2.11225 12.7272 2.3742 11.9224 2.85705C11.1177 3.3399 10.4546 4.02655 10.0001 4.84766C9.54566 4.02655 8.88257 3.3399 8.07783 2.85705C7.27308 2.3742 6.35517 2.11225 5.41679 2.09766C3.92091 2.16265 2.51155 2.81703 1.49661 3.91785C0.481678 5.01867 -0.0563308 6.47643 0.000128002 7.97266C0.000128002 11.7618 3.98846 15.9002 7.33346 18.706C8.08031 19.3336 9.02459 19.6777 10.0001 19.6777C10.9757 19.6777 11.9199 19.3336 12.6668 18.706C16.0118 15.9002 20.0001 11.7618 20.0001 7.97266C20.0566 6.47643 19.5186 5.01867 18.5036 3.91785C17.4887 2.81703 16.0793 2.16265 14.5835 2.09766ZM11.596 17.431C11.1493 17.8071 10.5841 18.0134 10.0001 18.0134C9.41617 18.0134 8.85098 17.8071 8.40429 17.431C4.12263 13.8385 1.66679 10.3918 1.66679 7.97266C1.60983 6.91825 1.9721 5.8841 2.6746 5.09574C3.37709 4.30738 4.36282 3.82878 5.41679 3.76432C6.47077 3.82878 7.45649 4.30738 8.15899 5.09574C8.86149 5.8841 9.22376 6.91825 9.16679 7.97266C9.16679 8.19367 9.25459 8.40563 9.41087 8.56191C9.56715 8.71819 9.77911 8.80599 10.0001 8.80599C10.2211 8.80599 10.4331 8.71819 10.5894 8.56191C10.7457 8.40563 10.8335 8.19367 10.8335 7.97266C10.7765 6.91825 11.1388 5.8841 11.8413 5.09574C12.5438 4.30738 13.5295 3.82878 14.5835 3.76432C15.6374 3.82878 16.6232 4.30738 17.3257 5.09574C18.0282 5.8841 18.3904 6.91825 18.3335 7.97266C18.3335 10.3918 15.8776 13.8385 11.596 17.4277V17.431Z" fill="white"/>
</g>
<defs>
<clipPath id="clip0_246_2472">
<rect width="20" height="20" fill="white" transform="translate(0 0.5)"/>
</clipPath>
</defs>
</svg>
