<svg width="30" height="30" viewBox="0 0 30 30" fill="none" xmlns="http://www.w3.org/2000/svg">
<g id="child-head 1" clip-path="url(#clip0_261_2996)">
<path id="Vector" d="M30.0014 14.3751C30.0007 13.5131 29.7454 12.6704 29.2675 11.953C28.7896 11.2356 28.1104 10.6753 27.3152 10.3426C26.8076 7.44553 25.2948 4.82022 23.0428 2.92842C20.7908 1.03662 17.9438 -0.000488281 15.0027 -0.000488281C12.0615 -0.000488281 9.21451 1.03662 6.96249 2.92842C4.71047 4.82022 3.19766 7.44553 2.69015 10.3426C1.78265 10.7244 1.03046 11.4011 0.555208 12.2633C0.0799532 13.1256 -0.0905806 14.1229 0.0711827 15.0941C0.232946 16.0652 0.717549 16.9534 1.44663 17.6151C2.17571 18.2767 3.10665 18.6731 4.0889 18.7401C4.73451 20.1102 5.6101 21.3595 6.67765 22.4338C5.11338 24.1418 4.12064 26.2951 3.83765 28.5938C3.81717 28.7568 3.82899 28.9221 3.87243 29.0805C3.91588 29.2388 3.9901 29.3871 4.09086 29.5168C4.19162 29.6464 4.31694 29.755 4.45967 29.8362C4.60239 29.9174 4.75971 29.9697 4.92265 29.9901C4.97409 29.9964 5.02584 29.9997 5.07765 30.0001C5.38186 29.9997 5.6755 29.8885 5.90354 29.6871C6.13159 29.4858 6.27837 29.2082 6.3164 28.9063C6.54303 27.094 7.33716 25.3999 8.58515 24.0663C10.4466 25.4403 12.6883 26.2033 15.0014 26.2501C17.3077 26.2029 19.5428 25.4431 21.4002 24.0751C22.6427 25.4063 23.4336 27.0957 23.6602 28.9026C23.6979 29.2046 23.8446 29.4825 24.0726 29.6841C24.3007 29.8857 24.5945 29.9972 24.8989 29.9976C24.9511 29.9973 25.0033 29.994 25.0552 29.9876C25.384 29.9464 25.683 29.7763 25.8865 29.5147C26.0899 29.2531 26.1812 28.9214 26.1402 28.5926C25.8592 26.2997 24.8714 24.1511 23.3139 22.4451C24.3874 21.3674 25.2677 20.1134 25.9164 18.7376C27.0236 18.664 28.0615 18.1725 28.8199 17.3626C29.5783 16.5526 30.0007 15.4847 30.0014 14.3751ZM25.3114 16.2163C25.0198 16.1629 24.7188 16.2156 24.4627 16.3649C24.2066 16.5141 24.0124 16.7501 23.9152 17.0301C22.7702 20.2776 18.9139 23.7501 15.0014 23.7501C11.0889 23.7501 7.23265 20.2751 6.08765 17.0276C5.9902 16.7477 5.79593 16.5119 5.5399 16.3627C5.28387 16.2135 4.98294 16.1607 4.6914 16.2138C4.58752 16.2342 4.48219 16.2463 4.3764 16.2501C3.91238 16.2445 3.46691 16.0671 3.12613 15.7521C2.78535 15.4372 2.57348 15.007 2.5315 14.5449C2.48951 14.0827 2.62039 13.6214 2.89883 13.2502C3.17727 12.879 3.58348 12.6242 4.0389 12.5351C4.30467 12.4869 4.54768 12.3539 4.73156 12.1561C4.91543 11.9582 5.03028 11.7062 5.0589 11.4376C5.22584 9.83922 5.77741 8.30507 6.66643 6.96631C7.55545 5.62755 8.75548 4.52402 10.1639 3.75008C9.95923 4.54521 9.94979 5.37803 10.1364 6.17758C10.3905 7.23495 10.9825 8.18064 11.8225 8.87129C12.6625 9.56194 13.7048 9.9599 14.7913 10.0048C15.8779 10.0498 16.9494 9.73927 17.8436 9.12035C18.7378 8.50142 19.4058 7.60785 19.7464 6.57508C19.8019 6.39162 19.8135 6.19766 19.7802 6.0089C19.7468 5.82013 19.6695 5.64187 19.5545 5.48852C19.4395 5.33517 19.29 5.21105 19.1181 5.1262C18.9463 5.04134 18.7568 4.99814 18.5652 5.00008H18.3764C18.1465 5.00762 17.925 5.08811 17.7438 5.22991C17.5627 5.3717 17.4314 5.56746 17.3689 5.78883C17.2236 6.22585 16.9604 6.61423 16.6084 6.91115C16.2563 7.20806 15.8291 7.40196 15.3738 7.47145C14.9186 7.54095 14.453 7.48334 14.0284 7.30498C13.6038 7.12662 13.2367 6.83444 12.9676 6.46068C12.6986 6.08692 12.538 5.6461 12.5036 5.18685C12.4692 4.7276 12.5623 4.26777 12.7727 3.85809C12.983 3.44841 13.3025 3.1048 13.6958 2.86517C14.089 2.62554 14.5409 2.4992 15.0014 2.50008C17.4712 2.49418 19.8553 3.40496 21.6921 5.05607C23.5288 6.70718 24.6876 8.98113 24.9439 11.4376C24.9725 11.7062 25.0874 11.9582 25.2712 12.1561C25.4551 12.3539 25.6981 12.4869 25.9639 12.5351C26.4193 12.6242 26.8255 12.879 27.104 13.2502C27.3824 13.6214 27.5133 14.0827 27.4713 14.5449C27.4293 15.007 27.2175 15.4372 26.8767 15.7521C26.5359 16.0671 26.0904 16.2445 25.6264 16.2501C25.5207 16.2472 25.4153 16.2359 25.3114 16.2163Z" fill="#BC6C25"/>
<path id="Vector_2" d="M11.875 16.25C12.9105 16.25 13.75 15.4105 13.75 14.375C13.75 13.3395 12.9105 12.5 11.875 12.5C10.8395 12.5 10 13.3395 10 14.375C10 15.4105 10.8395 16.25 11.875 16.25Z" fill="#BC6C25"/>
<path id="Vector_3" d="M18.125 16.25C19.1605 16.25 20 15.4105 20 14.375C20 13.3395 19.1605 12.5 18.125 12.5C17.0895 12.5 16.25 13.3395 16.25 14.375C16.25 15.4105 17.0895 16.25 18.125 16.25Z" fill="#BC6C25"/>
</g>
<defs>
<clipPath id="clip0_261_2996">
<rect width="30" height="30" fill="white"/>
</clipPath>
</defs>
</svg>
