<svg width="20" height="20" viewBox="0 0 20 20" fill="none" xmlns="http://www.w3.org/2000/svg">
<g id="man-head-3 1" clip-path="url(#clip0_1504_884)">
<path id="Vector" d="M12.0841 10.8334C11.8368 10.8334 11.5952 10.76 11.3896 10.6227C11.184 10.4853 11.0238 10.2901 10.9292 10.0617C10.8346 9.8333 10.8099 9.58197 10.8581 9.33949C10.9063 9.09701 11.0254 8.87429 11.2002 8.69947C11.375 8.52466 11.5977 8.4056 11.8402 8.35737C12.0827 8.30914 12.334 8.3339 12.5624 8.4285C12.7908 8.52311 12.9861 8.68333 13.1234 8.88889C13.2608 9.09445 13.3341 9.33613 13.3341 9.58335C13.3341 9.91488 13.2024 10.2328 12.968 10.4672C12.7335 10.7017 12.4156 10.8334 12.0841 10.8334ZM18.2099 6.89502C17.8753 4.96177 16.8677 3.20917 15.3654 1.94731C13.863 0.685452 11.9627 -0.00432612 10.0007 2.04169e-05C4.25074 2.04169e-05 2.60407 3.89502 1.51657 6.47252C1.29606 7.20181 0.921181 7.87511 0.417404 8.44669C0.266912 8.53446 0.147713 8.66719 0.0765652 8.82622C0.00541754 8.98524 -0.0141002 9.16257 0.0207561 9.33326C0.0556124 9.50396 0.14309 9.65944 0.270889 9.77784C0.398688 9.89624 0.560382 9.97161 0.733238 9.99335C2.79307 10.1666 4.86476 9.85254 6.78074 9.07669C6.67503 9.31096 6.6441 9.57212 6.69217 9.8246C6.74023 10.0771 6.86496 10.3086 7.04936 10.4876C7.23376 10.6667 7.46886 10.7845 7.72265 10.8251C7.97644 10.8657 8.23658 10.8271 8.46763 10.7145C8.69868 10.602 8.88941 10.4209 9.01384 10.196C9.13828 9.97112 9.19036 9.71335 9.16301 9.45779C9.13566 9.20223 9.0302 8.96132 8.86099 8.76787C8.69178 8.57441 8.46705 8.43782 8.2174 8.37669C9.85458 7.45956 11.2657 6.18764 12.3474 4.65419C12.416 4.56553 12.4661 4.46393 12.4945 4.35548C12.523 4.24702 12.5293 4.13394 12.513 4.023C12.4967 3.91207 12.4582 3.80556 12.3998 3.70985C12.3414 3.61415 12.2642 3.53122 12.173 3.46603C12.0818 3.40083 11.9783 3.35472 11.8689 3.33045C11.7594 3.30618 11.6462 3.30425 11.5359 3.32477C11.4257 3.3453 11.3208 3.38786 11.2274 3.4499C11.134 3.51194 11.0541 3.5922 10.9924 3.68585C10.0206 5.05406 8.75199 6.18481 7.28149 6.99352C5.81098 7.80222 4.17665 8.26795 2.50074 8.35585C2.6899 7.97835 2.86574 7.55919 3.0524 7.12002C4.0774 4.69002 5.35324 1.66669 10.0007 1.66669C11.6473 1.66275 13.2367 2.26994 14.4612 3.37068C15.6857 4.47142 16.4582 5.98738 16.6291 7.62502C16.6482 7.80407 16.7247 7.97213 16.8473 8.10403C16.9699 8.23593 17.1319 8.32457 17.3091 8.35669C17.6127 8.41607 17.8835 8.58593 18.0691 8.83342C18.2547 9.08091 18.342 9.38844 18.314 9.69654C18.286 10.0046 18.1448 10.2914 17.9176 10.5014C17.6904 10.7114 17.3934 10.8297 17.0841 10.8334C17.0136 10.8314 16.9434 10.8239 16.8741 10.8109C16.6797 10.7754 16.4791 10.8106 16.3084 10.9101C16.1377 11.0096 16.0082 11.1668 15.9432 11.3534C15.1799 13.5175 12.6107 15.8334 10.0007 15.8334C7.58407 15.8334 5.33407 13.9309 4.3624 12.0509C4.26074 11.8546 4.08527 11.7068 3.87461 11.6399C3.66394 11.573 3.43533 11.5925 3.23907 11.6942C3.04281 11.7959 2.89498 11.9713 2.82809 12.182C2.7612 12.3927 2.78074 12.6213 2.8824 12.8175C3.74608 14.429 5.0616 15.7533 6.6674 16.6275V19.1667C6.6674 19.3877 6.7552 19.5997 6.91148 19.7559C7.06776 19.9122 7.27972 20 7.50074 20C7.72175 20 7.93371 19.9122 8.08999 19.7559C8.24627 19.5997 8.33407 19.3877 8.33407 19.1667V17.2817C9.42582 17.575 10.5757 17.575 11.6674 17.2817V19.1667C11.6674 19.3877 11.7552 19.5997 11.9115 19.7559C12.0678 19.9122 12.2797 20 12.5007 20C12.7218 20 12.9337 19.9122 13.09 19.7559C13.2463 19.5997 13.3341 19.3877 13.3341 19.1667V16.6284C15.0542 15.7036 16.4353 14.2554 17.2774 12.4934C17.9322 12.4487 18.5529 12.1844 19.0389 11.7433C19.525 11.3022 19.848 10.7101 19.9559 10.0627C20.0637 9.41523 19.95 8.75035 19.6332 8.17552C19.3164 7.6007 18.8149 7.14955 18.2099 6.89502Z" fill="#BC6C25"/>
</g>
<defs>
<clipPath id="clip0_1504_884">
<rect width="20" height="20" fill="white"/>
</clipPath>
</defs>
</svg>
