<svg width="30" height="30" viewBox="0 0 30 30" fill="none" xmlns="http://www.w3.org/2000/svg">
<g id="man-head-3 1" clip-path="url(#clip0_261_3010)">
<path id="Vector" d="M18.1242 16.25C17.7533 16.25 17.3908 16.1401 17.0825 15.934C16.7741 15.728 16.5338 15.4352 16.3919 15.0926C16.25 14.75 16.2128 14.373 16.2852 14.0092C16.3575 13.6455 16.5361 13.3114 16.7983 13.0492C17.0606 12.787 17.3946 12.6084 17.7584 12.5361C18.1221 12.4637 18.4991 12.5008 18.8417 12.6428C19.1843 12.7847 19.4771 13.025 19.6832 13.3333C19.8892 13.6417 19.9992 14.0042 19.9992 14.375C19.9992 14.8723 19.8016 15.3492 19.45 15.7009C19.0983 16.0525 18.6214 16.25 18.1242 16.25ZM27.3129 10.3425C26.8111 7.44266 25.2996 4.81376 23.0461 2.92097C20.7925 1.02818 17.9421 -0.00648918 14.9992 3.06254e-05C6.37415 3.06254e-05 3.90415 5.84253 2.2729 9.70878C1.94213 10.8027 1.37982 11.8127 0.624153 12.67C0.398415 12.8017 0.219616 13.0008 0.112895 13.2393C0.00617318 13.4779 -0.0231034 13.7439 0.0291811 13.9999C0.0814655 14.2559 0.212681 14.4892 0.40438 14.6668C0.596079 14.8444 0.83862 14.9574 1.0979 14.99C4.18766 15.2498 7.29519 14.7788 10.1692 13.615C10.0106 13.9664 9.96419 14.3582 10.0363 14.7369C10.1084 15.1156 10.2955 15.4629 10.5721 15.7315C10.8487 16 11.2013 16.1768 11.582 16.2377C11.9627 16.2986 12.3529 16.2407 12.6995 16.0718C13.0461 15.9029 13.3322 15.6313 13.5188 15.294C13.7055 14.9567 13.7836 14.57 13.7426 14.1867C13.7015 13.8034 13.5433 13.442 13.2895 13.1518C13.0357 12.8616 12.6986 12.6567 12.3242 12.565C14.7799 11.1893 16.8967 9.28145 18.5192 6.98128C18.6221 6.84829 18.6972 6.6959 18.7399 6.53321C18.7825 6.37053 18.7919 6.20091 18.7675 6.03451C18.7431 5.8681 18.6853 5.70834 18.5977 5.56478C18.5101 5.42123 18.3944 5.29683 18.2576 5.19904C18.1207 5.10125 17.9656 5.03208 17.8014 4.99568C17.6372 4.95927 17.4673 4.95637 17.302 4.98716C17.1366 5.01795 16.9792 5.08178 16.8391 5.17485C16.699 5.26792 16.5791 5.3883 16.4867 5.52878C15.0289 7.58109 13.126 9.27722 10.9203 10.4903C8.71452 11.7033 6.26301 12.4019 3.74915 12.5338C4.0329 11.9675 4.29665 11.3388 4.57665 10.68C6.11415 7.03503 8.0279 2.50003 14.9992 2.50003C17.4689 2.49412 19.8531 3.40491 21.6898 5.05602C23.5266 6.70712 24.6853 8.98107 24.9417 11.4375C24.9703 11.7061 25.0851 11.9582 25.269 12.156C25.4529 12.3539 25.6959 12.4869 25.9617 12.535C26.4171 12.6241 26.8233 12.8789 27.1017 13.2501C27.3802 13.6214 27.511 14.0827 27.4691 14.5448C27.4271 15.007 27.2152 15.4371 26.8744 15.7521C26.5336 16.0671 26.0882 16.2445 25.6242 16.25C25.5184 16.2471 25.4131 16.2358 25.3092 16.2163C25.0176 16.1631 24.7167 16.2159 24.4607 16.3651C24.2046 16.5144 24.0104 16.7502 23.9129 17.03C22.7679 20.2763 18.9142 23.75 14.9992 23.75C11.3742 23.75 7.99915 20.8963 6.54165 18.0763C6.38915 17.7819 6.12595 17.5601 5.80996 17.4598C5.49396 17.3595 5.15104 17.3888 4.85665 17.5413C4.56226 17.6938 4.34051 17.957 4.24018 18.273C4.13985 18.589 4.16915 18.9319 4.32165 19.2263C5.61717 21.6436 7.59045 23.6299 9.99915 24.9413V28.75C9.99915 29.0816 10.1308 29.3995 10.3653 29.6339C10.5997 29.8683 10.9176 30 11.2492 30C11.5807 30 11.8986 29.8683 12.133 29.6339C12.3675 29.3995 12.4992 29.0816 12.4992 28.75V25.9225C14.1368 26.3625 15.8615 26.3625 17.4992 25.9225V28.75C17.4992 29.0816 17.6308 29.3995 17.8653 29.6339C18.0997 29.8683 18.4176 30 18.7492 30C19.0807 30 19.3986 29.8683 19.633 29.6339C19.8675 29.3995 19.9992 29.0816 19.9992 28.75V24.9425C22.5793 23.5554 24.651 21.3831 25.9142 18.74C26.8964 18.673 27.8273 18.2766 28.5564 17.615C29.2855 16.9534 29.7701 16.0652 29.9319 15.094C30.0936 14.1229 29.9231 13.1255 29.4478 12.2633C28.9726 11.4011 28.2204 10.7243 27.3129 10.3425Z" fill="#BC6C25"/>
</g>
<defs>
<clipPath id="clip0_261_3010">
<rect width="30" height="30" fill="white"/>
</clipPath>
</defs>
</svg>
