<svg width="20" height="18" viewBox="0 0 20 18" fill="none" xmlns="http://www.w3.org/2000/svg">
<g id="Frame 151">
<path id="Vector" d="M20 8.68857C19.993 7.92555 19.6902 7.19604 19.1571 6.65812L13.0286 0.421743C12.7609 0.151619 12.3988 0 12.0214 0C11.644 0 11.2819 0.151619 11.0143 0.421743C10.8804 0.556569 10.7741 0.716976 10.7016 0.893711C10.6291 1.07045 10.5917 1.26001 10.5917 1.45147C10.5917 1.64293 10.6291 1.83249 10.7016 2.00923C10.7741 2.18596 10.8804 2.34637 11.0143 2.4812L15.7143 7.23825H1.42857C1.04969 7.23825 0.686328 7.39105 0.418419 7.66304C0.15051 7.93502 0 8.30392 0 8.68857C0 9.07322 0.15051 9.44211 0.418419 9.7141C0.686328 9.98608 1.04969 10.1389 1.42857 10.1389H15.7143L11.0143 14.9104C10.7453 15.1816 10.5934 15.5502 10.5921 15.935C10.5907 16.3199 10.74 16.6895 11.0071 16.9626C11.2743 17.2357 11.6373 17.3899 12.0164 17.3913C12.3955 17.3927 12.7596 17.2411 13.0286 16.9699L19.1571 10.7335C19.6937 10.192 19.9968 9.45662 20 8.68857Z" fill="#023047"/>
</g>
</svg>
