<svg width="20" height="20" viewBox="0 0 20 20" fill="none" xmlns="http://www.w3.org/2000/svg">
<g id="phone-call-3 1" clip-path="url(#clip0_286_8660)">
<path id="Vector" d="M19.165 9.16679C18.9439 9.16679 18.732 9.07899 18.5757 8.92271C18.4194 8.76643 18.3316 8.55447 18.3316 8.33346C18.3299 6.56589 17.6269 4.87122 16.3771 3.62136C15.1272 2.3715 13.4325 1.66856 11.665 1.66679C11.4439 1.66679 11.232 1.57899 11.0757 1.42271C10.9194 1.26643 10.8316 1.05447 10.8316 0.833457C10.8316 0.612443 10.9194 0.400482 11.0757 0.244201C11.232 0.087921 11.4439 0.000123615 11.665 0.000123615C13.8744 0.00254995 15.9926 0.881303 17.5548 2.44358C19.1171 4.00586 19.9959 6.12406 19.9983 8.33346C19.9983 8.55447 19.9105 8.76643 19.7542 8.92271C19.5979 9.07899 19.386 9.16679 19.165 9.16679ZM16.665 8.33346C16.665 7.00738 16.1382 5.73561 15.2005 4.79792C14.2628 3.86024 12.991 3.33346 11.665 3.33346C11.4439 3.33346 11.232 3.42125 11.0757 3.57754C10.9194 3.73382 10.8316 3.94578 10.8316 4.16679C10.8316 4.3878 10.9194 4.59977 11.0757 4.75605C11.232 4.91233 11.4439 5.00012 11.665 5.00012C12.549 5.00012 13.3969 5.35131 14.022 5.97643C14.6471 6.60156 14.9983 7.4494 14.9983 8.33346C14.9983 8.55447 15.0861 8.76643 15.2424 8.92271C15.3987 9.07899 15.6106 9.16679 15.8316 9.16679C16.0526 9.16679 16.2646 9.07899 16.4209 8.92271C16.5772 8.76643 16.665 8.55447 16.665 8.33346ZM18.4841 18.4701L19.2425 17.596C19.7251 17.1117 19.9962 16.4559 19.9962 15.7722C19.9962 15.0885 19.7251 14.4327 19.2425 13.9485C19.2166 13.9226 17.2116 12.3801 17.2116 12.3801C16.7304 11.9221 16.0912 11.667 15.4269 11.6679C14.7625 11.6689 14.124 11.9257 13.6441 12.3851L12.0558 13.7235C10.7593 13.1869 9.58153 12.3994 8.5902 11.4064C7.59886 10.4133 6.81347 9.23424 6.27913 7.93679L7.61246 6.35346C8.07222 5.8736 8.32937 5.23502 8.33046 4.57046C8.33155 3.9059 8.07648 3.26648 7.61829 2.78512C7.61829 2.78512 6.07413 0.782624 6.04829 0.75679C5.57284 0.278247 4.92819 0.00597529 4.25365 -0.0011974C3.5791 -0.00837009 2.92882 0.250132 2.44329 0.718457L1.48496 1.55179C-4.17671 8.12012 8.01496 20.2176 14.8 20.0001C15.4851 20.0041 16.1641 19.8708 16.7969 19.608C17.4296 19.3452 18.0034 18.9583 18.4841 18.4701Z" fill="#023047"/>
</g>
<defs>
<clipPath id="clip0_286_8660">
<rect width="20" height="20" fill="white"/>
</clipPath>
</defs>
</svg>
