<svg width="18" height="18" viewBox="0 0 18 18" fill="none" xmlns="http://www.w3.org/2000/svg">
<g id="heart 2" clip-path="url(#clip0_1802_401)">
<path id="Vector" d="M13.1247 1.43799C12.2802 1.45112 11.4541 1.68688 10.7298 2.12144C10.0055 2.55601 9.40874 3.17399 8.99972 3.91299C8.5907 3.17399 7.99392 2.55601 7.26965 2.12144C6.54538 1.68688 5.71926 1.45112 4.87472 1.43799C3.52843 1.49648 2.26 2.08543 1.34656 3.07616C0.433119 4.0669 -0.0510883 5.37888 -0.000275423 6.72549C-0.000275423 10.1357 3.58922 13.8602 6.59972 16.3855C7.27189 16.9503 8.12174 17.26 8.99972 17.26C9.87771 17.26 10.7276 16.9503 11.3997 16.3855C14.4102 13.8602 17.9997 10.1357 17.9997 6.72549C18.0505 5.37888 17.5663 4.0669 16.6529 3.07616C15.7394 2.08543 14.471 1.49648 13.1247 1.43799ZM10.436 15.238C10.034 15.5765 9.52529 15.7622 8.99972 15.7622C8.47416 15.7622 7.96549 15.5765 7.56347 15.238C3.70997 12.0047 1.49972 8.90274 1.49972 6.72549C1.44845 5.77653 1.7745 4.84579 2.40675 4.13626C3.03899 3.42674 3.92615 2.996 4.87472 2.93799C5.8233 2.996 6.71045 3.42674 7.3427 4.13626C7.97495 4.84579 8.30099 5.77653 8.24972 6.72549C8.24972 6.9244 8.32874 7.11517 8.46939 7.25582C8.61005 7.39647 8.80081 7.47549 8.99972 7.47549C9.19864 7.47549 9.3894 7.39647 9.53005 7.25582C9.67071 7.11517 9.74972 6.9244 9.74972 6.72549C9.69845 5.77653 10.0245 4.84579 10.6567 4.13626C11.289 3.42674 12.1761 2.996 13.1247 2.93799C14.0733 2.996 14.9605 3.42674 15.5927 4.13626C16.2249 4.84579 16.551 5.77653 16.4997 6.72549C16.4997 8.90274 14.2895 12.0047 10.436 15.235V15.238Z" fill="#D74848" fill-opacity="0.3"/>
</g>
<defs>
<clipPath id="clip0_1802_401">
<rect width="18" height="18" fill="white"/>
</clipPath>
</defs>
</svg>
