<svg width="20" height="20" viewBox="0 0 20 20" fill="none" xmlns="http://www.w3.org/2000/svg">
<g id="twitter 1" clip-path="url(#clip0_284_8605)">
<path id="Logo_00000038394049246713568260000012923108920998390947_" d="M17.9525 5.91998C17.9642 6.09581 17.9642 6.27248 17.9642 6.44998C17.9642 11.8725 13.8358 18.125 6.28917 18.125V18.1216C4.06 18.125 1.87667 17.4866 0 16.2825C0.324167 16.3216 0.65 16.3408 0.976667 16.3416C2.825 16.3433 4.62 15.7233 6.0725 14.5816C4.31667 14.5483 2.77667 13.4033 2.23917 11.7316C2.85417 11.85 3.4875 11.8258 4.09167 11.6616C2.17667 11.275 0.8 9.59248 0.8 7.63914C0.8 7.62164 0.8 7.60414 0.8 7.58748C1.37083 7.90581 2.00917 8.08165 2.6625 8.10081C0.859167 6.89664 0.3025 4.49831 1.39167 2.62331C3.475 5.18665 6.54917 6.74498 9.84833 6.91081C9.5175 5.48581 9.97 3.99248 11.035 2.98998C12.6875 1.43581 15.2867 1.51581 16.8408 3.16831C17.76 2.98748 18.6408 2.64998 19.4467 2.17248C19.14 3.12248 18.4992 3.92915 17.6425 4.44248C18.4567 4.34498 19.2508 4.12748 20 3.79581C19.4492 4.61998 18.7558 5.33915 17.9525 5.91998Z" fill="#023047"/>
</g>
<defs>
<clipPath id="clip0_284_8605">
<rect width="20" height="20" fill="white"/>
</clipPath>
</defs>
</svg>
