<svg width="30" height="30" viewBox="0 0 30 30" fill="none" xmlns="http://www.w3.org/2000/svg">
<g id="woman-head-2 1" clip-path="url(#clip0_261_3004)">
<path id="Vector" d="M18.1235 16.25C17.7527 16.25 17.3902 16.1401 17.0818 15.934C16.7735 15.728 16.5332 15.4352 16.3912 15.0926C16.2493 14.75 16.2122 14.373 16.2845 14.0092C16.3569 13.6455 16.5355 13.3114 16.7977 13.0492C17.0599 12.787 17.394 12.6084 17.7577 12.5361C18.1214 12.4637 18.4984 12.5008 18.8411 12.6428C19.1837 12.7847 19.4765 13.025 19.6825 13.3333C19.8886 13.6417 19.9985 14.0042 19.9985 14.375C19.9985 14.8723 19.801 15.3492 19.4493 15.7009C19.0977 16.0525 18.6208 16.25 18.1235 16.25ZM29.9048 22.68C30.0608 23.5778 30.0186 24.4988 29.7812 25.3785C29.5437 26.2583 29.1168 27.0755 28.5303 27.7728C27.9438 28.4702 27.2119 29.0309 26.3859 29.4156C25.5599 29.8004 24.6597 29.9998 23.7485 30H18.7485C18.417 30 18.0991 29.8683 17.8646 29.6339C17.6302 29.3995 17.4985 29.0816 17.4985 28.75V25.9213C16.6825 26.1365 15.8424 26.2469 14.9985 26.25C14.1541 26.2457 13.3138 26.1323 12.4985 25.9125V28.75C12.4985 29.0816 12.3668 29.3995 12.1324 29.6339C11.898 29.8683 11.58 30 11.2485 30H6.24852C5.33731 29.9998 4.43716 29.8004 3.61115 29.4156C2.78514 29.0309 2.05325 28.4702 1.46674 27.7728C0.880242 27.0755 0.453321 26.2583 0.215893 25.3785C-0.0215344 24.4988 -0.0637265 23.5778 0.0922734 22.68L0.467273 20.505C0.591971 19.7816 0.930516 19.1122 1.43925 18.583C1.94799 18.0539 2.60359 17.6892 3.3215 17.5361C4.03942 17.3831 4.78674 17.4486 5.46708 17.7242C6.14742 17.9998 6.72959 18.4729 7.13852 19.0825C8.71852 21.405 11.7598 23.75 14.9985 23.75C18.911 23.75 22.766 20.2763 23.911 17.03C24.0029 16.786 24.1667 16.5757 24.3808 16.4268C24.5948 16.2779 24.849 16.1975 25.1098 16.1963L25.6498 16.205C25.8918 16.208 26.132 16.1629 26.3564 16.0722C26.5809 15.9815 26.785 15.8471 26.957 15.6768C27.1291 15.5066 27.2655 15.3038 27.3585 15.0803C27.4514 14.8568 27.499 14.6171 27.4985 14.375C27.4981 13.9366 27.344 13.5122 27.0631 13.1756C26.7822 12.839 26.3923 12.6114 25.961 12.5325C25.6951 12.4843 25.4519 12.3511 25.268 12.153C25.0841 11.955 24.9694 11.7026 24.941 11.4338C24.6841 8.9779 23.5251 6.70469 21.6883 5.05431C19.8516 3.40392 17.4678 2.49375 14.9985 2.50003C8.02727 2.50003 6.11352 7.03503 4.57602 10.68C4.29602 11.3388 4.03227 11.9675 3.74852 12.5338C6.26201 12.4009 8.71289 11.7013 10.9178 10.4874C13.1227 9.27342 15.0245 7.57657 16.481 5.52379C16.5764 5.39017 16.6972 5.27664 16.8364 5.18969C16.9756 5.10274 17.1307 5.04406 17.2926 5.01702C17.4545 4.98997 17.6202 4.99509 17.7801 5.03206C17.9401 5.06904 18.0912 5.13716 18.2248 5.23253C18.3584 5.32791 18.4719 5.44866 18.5589 5.58791C18.6458 5.72716 18.7045 5.88217 18.7315 6.04409C18.7586 6.20601 18.7535 6.37168 18.7165 6.53162C18.6795 6.69157 18.6114 6.84267 18.516 6.97628C16.8936 9.27649 14.7768 11.1844 12.321 12.56C12.6954 12.6519 13.0323 12.857 13.2859 13.1473C13.5395 13.4375 13.6975 13.7989 13.7384 14.1822C13.7793 14.5655 13.701 14.9521 13.5143 15.2893C13.3275 15.6265 13.0414 15.898 12.6948 16.0667C12.3483 16.2355 11.9581 16.2933 11.5775 16.2324C11.1969 16.1714 10.8443 15.9947 10.5678 15.7261C10.2912 15.4576 10.1042 15.1104 10.0321 14.7317C9.95995 14.3531 10.0063 13.9614 10.1648 13.61C7.29079 14.7738 4.18327 15.2448 1.09352 14.985C0.835988 14.9505 0.59561 14.8366 0.40582 14.6591C0.216029 14.4817 0.0862613 14.2495 0.0345626 13.9948C-0.017136 13.7402 0.0118049 13.4757 0.11736 13.2383C0.222916 13.0009 0.399839 12.8022 0.623523 12.67C1.37919 11.8127 1.9415 10.8027 2.27227 9.70879C3.90352 5.84254 6.37352 3.50091e-05 14.9985 3.50091e-05C17.9415 -0.00693683 20.792 1.0276 23.0454 2.92049C25.2989 4.81338 26.8099 7.44254 27.311 10.3425C28.1065 10.6751 28.7859 11.2353 29.2641 11.9527C29.7422 12.6701 29.9977 13.5129 29.9985 14.375C29.9964 15.4138 29.617 16.4163 28.931 17.1963C28.9398 17.2288 28.9623 17.255 28.9685 17.29L29.9048 22.68ZM9.99852 24.925C8.02134 23.8655 6.33086 22.3419 5.07227 20.485C4.96517 20.3231 4.81985 20.1901 4.64915 20.0977C4.47846 20.0052 4.28763 19.9563 4.09352 19.955H4.07227C3.7986 19.9608 3.53542 20.0614 3.32772 20.2397C3.12001 20.418 2.98068 20.6629 2.93352 20.9325L2.55852 23.1063C2.46469 23.6448 2.48971 24.1972 2.63182 24.725C2.77393 25.2528 3.0297 25.7432 3.38122 26.1617C3.73274 26.5803 4.17151 26.9169 4.6668 27.1481C5.16209 27.3793 5.70194 27.4994 6.24852 27.5H9.99852V24.925ZM27.4423 23.1063L26.6573 18.59C26.4196 18.6467 26.1774 18.6827 25.9335 18.6975C24.6724 21.3586 22.5926 23.5462 19.9985 24.94V27.5H23.7485C24.2953 27.4999 24.8354 27.3802 25.3311 27.1494C25.8267 26.9185 26.2659 26.582 26.6178 26.1636C26.9697 25.7451 27.2259 25.2547 27.3683 24.7268C27.5107 24.1989 27.536 23.645 27.4423 23.1063Z" fill="#BC6C25"/>
</g>
<defs>
<clipPath id="clip0_261_3004">
<rect width="30" height="30" fill="white"/>
</clipPath>
</defs>
</svg>
