<svg width="20" height="20" viewBox="0 0 20 20" fill="none" xmlns="http://www.w3.org/2000/svg">
<g id="woman-head-2 1" clip-path="url(#clip0_1504_886)">
<path id="Vector" d="M12.0823 10.8334C11.8351 10.8334 11.5934 10.76 11.3879 10.6227C11.1823 10.4853 11.0221 10.2901 10.9275 10.0617C10.8329 9.8333 10.8081 9.58197 10.8564 9.33949C10.9046 9.09702 11.0236 8.87429 11.1985 8.69947C11.3733 8.52466 11.596 8.40561 11.8385 8.35737C12.081 8.30914 12.3323 8.3339 12.5607 8.42851C12.7891 8.52312 12.9843 8.68333 13.1217 8.88889C13.259 9.09445 13.3323 9.33613 13.3323 9.58336C13.3323 9.91488 13.2007 10.2328 12.9662 10.4672C12.7318 10.7017 12.4139 10.8334 12.0823 10.8334ZM19.9365 15.12C20.0405 15.7185 20.0124 16.3325 19.8541 16.919C19.6958 17.5055 19.4112 18.0503 19.0202 18.5152C18.6292 18.9801 18.1413 19.3539 17.5906 19.6104C17.0399 19.8669 16.4398 19.9999 15.8323 20H12.499C12.278 20 12.066 19.9122 11.9098 19.7559C11.7535 19.5997 11.6657 19.3877 11.6657 19.1667V17.2809C11.1217 17.4243 10.5616 17.498 9.99901 17.5C9.43609 17.4971 8.87589 17.4215 8.33235 17.275V19.1667C8.33235 19.3877 8.24455 19.5997 8.08827 19.7559C7.93199 19.9122 7.72003 20 7.49902 20H4.16568C3.55821 19.9999 2.95811 19.8669 2.40743 19.6104C1.85676 19.3539 1.36883 18.9801 0.977829 18.5152C0.586828 18.0503 0.302214 17.5055 0.143929 16.919C-0.0143563 16.3325 -0.0424843 15.7185 0.0615156 15.12L0.311516 13.67C0.394647 13.1878 0.620344 12.7415 0.959501 12.3887C1.29866 12.0359 1.73572 11.7928 2.21434 11.6908C2.69295 11.5887 3.19116 11.6324 3.64472 11.8161C4.09828 11.9999 4.4864 12.3153 4.75902 12.7217C5.81235 14.27 7.83985 15.8334 9.99901 15.8334C12.6073 15.8334 15.1773 13.5175 15.9407 11.3534C16.0019 11.1907 16.1111 11.0504 16.2538 10.9512C16.3966 10.8519 16.566 10.7984 16.7398 10.7975L17.0998 10.8034C17.2612 10.8053 17.4213 10.7752 17.571 10.7148C17.7206 10.6543 17.8567 10.5647 17.9714 10.4512C18.086 10.3377 18.177 10.2025 18.239 10.0535C18.301 9.90454 18.3327 9.74472 18.3323 9.58336C18.3321 9.29108 18.2294 9.00814 18.0421 8.78374C17.8548 8.55933 17.5949 8.40763 17.3074 8.35502C17.13 8.32286 16.9679 8.2341 16.8453 8.10203C16.7227 7.96997 16.6463 7.80172 16.6273 7.62252C16.4561 5.98526 15.6834 4.4698 14.4589 3.36954C13.2344 2.26928 11.6452 1.6625 9.99901 1.66669C5.35152 1.66669 4.07568 4.69002 3.05068 7.12002C2.86402 7.55919 2.68818 7.97836 2.49902 8.35586C4.17467 8.26725 5.80859 7.80086 7.27853 6.99157C8.74847 6.18228 10.0164 5.05105 10.9873 3.68252C11.0509 3.59344 11.1314 3.51776 11.2243 3.45979C11.3171 3.40182 11.4204 3.36271 11.5284 3.34468C11.6363 3.32665 11.7468 3.33006 11.8534 3.35471C11.96 3.37936 12.0608 3.42477 12.1498 3.48836C12.2389 3.55194 12.3146 3.63244 12.3726 3.72527C12.4305 3.81811 12.4697 3.92145 12.4877 4.02939C12.5057 4.13734 12.5023 4.24778 12.4777 4.35441C12.453 4.46105 12.4076 4.56178 12.344 4.65086C11.2624 6.18432 9.85121 7.45625 8.21402 8.37336C8.46358 8.43463 8.68819 8.57133 8.85727 8.76484C9.02636 8.95835 9.13169 9.19927 9.15893 9.4548C9.18617 9.71033 9.13399 9.96804 9.0095 10.1928C8.88502 10.4177 8.69427 10.5986 8.46323 10.7111C8.23219 10.8236 7.97209 10.8622 7.71835 10.8216C7.46461 10.781 7.22955 10.6631 7.04519 10.4841C6.86083 10.3051 6.73612 10.0736 6.68804 9.82116C6.63996 9.56872 6.67086 9.3076 6.77652 9.07336C4.86053 9.84918 2.78885 10.1632 0.729016 9.99002C0.557325 9.96701 0.397073 9.89107 0.270546 9.77276C0.14402 9.65444 0.0575075 9.49964 0.0230418 9.32988C-0.011424 9.16012 0.00786994 8.98383 0.0782402 8.82555C0.14861 8.66726 0.266559 8.53483 0.415682 8.44669C0.919459 7.87511 1.29433 7.20181 1.51485 6.47252C2.60235 3.89502 4.24902 2.33394e-05 9.99901 2.33394e-05C11.961 -0.00462456 13.8613 0.685063 15.3636 1.94699C16.8659 3.20892 17.8733 4.9617 18.2073 6.89502C18.7377 7.11672 19.1906 7.49017 19.5094 7.96847C19.8282 8.44676 19.9985 9.00857 19.999 9.58336C19.9976 10.2758 19.7447 10.9442 19.2873 11.4642C19.2932 11.4859 19.3082 11.5034 19.3123 11.5267L19.9365 15.12ZM6.66568 16.6167C5.34756 15.9103 4.22058 14.8946 3.38152 13.6567C3.31011 13.5488 3.21323 13.4601 3.09944 13.3985C2.98564 13.3368 2.85842 13.3042 2.72902 13.3034H2.71485C2.5324 13.3072 2.35695 13.3743 2.21848 13.4931C2.08001 13.612 1.98712 13.7753 1.95568 13.955L1.70568 15.4042C1.64313 15.7632 1.65981 16.1315 1.75455 16.4834C1.84929 16.8352 2.0198 17.1621 2.25415 17.4411C2.48849 17.7202 2.78101 17.9446 3.1112 18.0987C3.4414 18.2529 3.80129 18.3329 4.16568 18.3334H6.66568V16.6167ZM18.2948 15.4042L17.7715 12.3934C17.6131 12.4311 17.4516 12.4551 17.289 12.465C16.4483 14.2391 15.0617 15.6975 13.3323 16.6267V18.3334H15.8323C16.1969 18.3333 16.557 18.2535 16.8874 18.0996C17.2178 17.9457 17.5106 17.7214 17.7452 17.4424C17.9798 17.1634 18.1506 16.8365 18.2455 16.4845C18.3405 16.1326 18.3573 15.7633 18.2948 15.4042Z" fill="#BC6C25"/>
</g>
<defs>
<clipPath id="clip0_1504_886">
<rect width="20" height="20" fill="white"/>
</clipPath>
</defs>
</svg>
