<?xml version="1.0" encoding="utf-8"?>
<!-- Generator: Adobe Illustrator 27.4.0, SVG Export Plug-In . SVG Version: 6.00 Build 0)  -->
<svg version="1.1" id="Layer_1" xmlns="http://www.w3.org/2000/svg" xmlns:xlink="http://www.w3.org/1999/xlink" x="0px" y="0px"
	 viewBox="0 0 1200.55 554.55" style="enable-background:new 0 0 1200.55 554.55;" xml:space="preserve">
<style type="text/css">
	.st0{fill:#D4D6D6;}
</style>
<path class="st0" d="M1146.68,12.9h-63.25h-55.22H765.64c-25.27,0-48.77,13.63-60.71,35.9c-21.7,40.44-61.24,67.5-106.42,67.5
	s-84.72-27.06-106.42-67.5c-11.95-22.27-35.44-35.9-60.71-35.9H175.45h-55.22H56.98c-25.52,0-46.21,20.69-46.21,46.21v63.25v309.5
	v63.25c0,25.52,20.69,46.21,46.21,46.21h63.25h55.22h852.77h55.22h63.25c25.52,0,46.21-20.69,46.21-46.21v-63.25v-309.5V59.12
	C1192.89,33.59,1172.2,12.9,1146.68,12.9z"/>
</svg>
