<svg width="48" height="48" viewBox="0 0 48 48" fill="none" xmlns="http://www.w3.org/2000/svg">
<g id="play-circle 1">
<path id="Vector" d="M33.0793 20.4608L21.4099 14.1804C20.2885 13.5608 18.9595 13.5745 17.852 14.2078C16.7426 14.8451 16.0801 15.9804 16.0801 17.2431V29.8137C16.0801 31.0765 16.7426 32.2118 17.852 32.849C18.4167 33.1726 19.0393 33.3353 19.6579 33.3353C20.2585 33.3353 20.8552 33.1843 21.3999 32.8843L33.0872 26.5941C34.2286 25.9627 34.9111 24.8176 34.9111 23.5314C34.9111 22.2451 34.2286 21.098 33.0773 20.4627L33.0793 20.4608ZM32.1214 24.8784L20.4341 31.1686C19.9373 31.4412 19.3506 31.4373 18.8617 31.1569C18.3709 30.8745 18.0775 30.3725 18.0775 29.8137V17.2431C18.0775 16.6843 18.3689 16.1824 18.8617 15.9C19.1092 15.7588 19.3825 15.6863 19.6559 15.6863C19.9233 15.6863 20.1947 15.7549 20.4441 15.8922L32.1135 22.1725C32.6183 22.451 32.9196 22.9569 32.9196 23.5255C32.9196 24.0941 32.6183 24.6 32.1234 24.8745L32.1214 24.8784ZM24 0C10.7962 0 0.0546875 10.5549 0.0546875 23.5294C0.0546875 36.5039 10.7962 47.0588 24 47.0588C37.2038 47.0588 47.9453 36.5039 47.9453 23.5294C47.9453 10.5549 37.2038 0 24 0ZM24 45.098C11.8976 45.098 2.05013 35.4216 2.05013 23.5294C2.05013 11.6373 11.8976 1.96078 24 1.96078C36.1024 1.96078 45.9499 11.6373 45.9499 23.5294C45.9499 35.4216 36.1024 45.098 24 45.098Z" fill="white"/>
</g>
</svg>
