<svg width="20" height="20" viewBox="0 0 20 20" fill="none" xmlns="http://www.w3.org/2000/svg">
<g id="youtube 1" clip-path="url(#clip0_284_8602)">
<g id="XMLID_184_">
<path id="Vector" d="M19.5817 5.15502C19.3517 4.28918 18.6742 3.60668 17.8133 3.37502C16.2542 2.95502 10 2.95502 10 2.95502C10 2.95502 3.74583 2.95502 2.18583 3.37502C1.32583 3.60668 0.648333 4.28835 0.418333 5.15502C0 6.72502 0 10 0 10C0 10 0 13.275 0.418333 14.845C0.648333 15.7109 1.32583 16.3934 2.18667 16.625C3.74583 17.045 10 17.045 10 17.045C10 17.045 16.2542 17.045 17.8142 16.625C18.6742 16.3934 19.3517 15.7117 19.5825 14.845C20 13.275 20 10 20 10C20 10 20 6.72502 19.5817 5.15502ZM7.955 12.9742V7.02585L13.1817 10L7.955 12.9742Z" fill="#023047"/>
</g>
</g>
<defs>
<clipPath id="clip0_284_8602">
<rect width="20" height="20" fill="white"/>
</clipPath>
</defs>
</svg>
