<svg width="20" height="20" viewBox="0 0 20 20" fill="none" xmlns="http://www.w3.org/2000/svg">
<g id="facebook 1" clip-path="url(#clip0_284_8607)">
<g id="Group">
<path id="Vector" d="M20 10.0609C20 15.0517 16.3383 19.1892 11.5583 19.94V12.9709H13.8825L14.325 10.0875H11.5583V8.21669C11.5583 7.42752 11.945 6.65919 13.1833 6.65919H14.4408V4.20419C14.4408 4.20419 13.2992 4.00919 12.2083 4.00919C9.93 4.00919 8.44167 5.39002 8.44167 7.88919V10.0867H5.90917V12.97H8.44167V19.9392C3.6625 19.1875 0 15.0509 0 10.0609C0 4.53835 4.4775 0.0608521 10 0.0608521C15.5225 0.0608521 20 4.53752 20 10.0609Z" fill="#023047"/>
</g>
</g>
<defs>
<clipPath id="clip0_284_8607">
<rect width="20" height="20" fill="white"/>
</clipPath>
</defs>
</svg>
